<?xml version="1.0" standalone="no"?>
<!DOCTYPE svg PUBLIC "-//W3C//DTD SVG 20010904//EN"
 "http://www.w3.org/TR/2001/REC-SVG-20010904/DTD/svg10.dtd">
<svg version="1.0" xmlns="http://www.w3.org/2000/svg"
 width="503.000000pt" height="503.000000pt" viewBox="0 0 503.000000 503.000000"
 preserveAspectRatio="xMidYMid meet">
<metadata>
Created by potrace 1.14, written by Peter Selinger 2001-2017
</metadata>
<g transform="translate(0.000000,503.000000) scale(0.100000,-0.100000)"
fill="#000000" stroke="none">
<path d="M2659 5000 c-359 -33 -719 -275 -879 -590 -21 -41 -45 -104 -55 -140
-9 -36 -21 -74 -26 -85 -12 -28 -29 -194 -31 -312 -2 -86 -3 -79 -9 57 -5 133
-6 123 -3 -71 2 -169 -1 -240 -12 -285 -10 -42 -12 -83 -7 -144 4 -47 6 -89 4
-95 -15 -54 -12 -73 19 -108 63 -72 74 -135 85 -477 5 -152 3 -168 -15 -197
-32 -53 -104 -41 -133 20 -20 41 -21 51 -6 41 19 -11 1 64 -29 126 -24 49 -27
67 -27 156 0 81 3 104 17 117 20 20 25 47 33 179 3 58 1 99 -4 103 -6 3 -7 13
-4 22 4 11 2 14 -8 11 -8 -2 -16 -15 -18 -29 -1 -13 -16 -43 -31 -65 -23 -34
-30 -61 -40 -147 -12 -98 -8 -183 8 -173 4 2 8 -41 9 -95 1 -72 6 -108 19
-132 9 -17 29 -57 44 -87 40 -80 60 -95 130 -95 l59 1 8 -76 c4 -41 7 -133 6
-204 -2 -71 1 -134 6 -140 8 -11 14 -37 30 -146 17 -110 40 -169 72 -185 30
-16 38 -35 42 -98 2 -26 11 -45 30 -63 28 -26 31 -40 21 -93 l-7 -31 -58 62
-59 63 52 -84 c38 -61 95 -126 203 -233 83 -82 159 -155 170 -163 11 -7 38
-16 60 -19 22 -4 64 -16 94 -27 79 -29 179 -18 285 32 44 20 85 35 92 32 7 -3
54 24 103 59 50 34 109 75 131 91 22 15 53 48 68 73 15 26 40 63 55 83 16 20
38 49 50 65 12 15 39 48 59 72 59 71 98 131 98 153 0 11 13 35 29 53 43 50 55
81 91 228 18 74 44 155 56 180 15 28 24 62 24 90 0 65 7 71 58 57 38 -10 48
-9 80 8 20 11 46 36 58 55 13 19 35 50 50 68 28 35 54 114 54 167 0 17 4 35 9
41 21 20 41 132 41 225 0 83 -3 102 -25 143 -14 26 -23 51 -20 56 9 14 -6 40
-24 39 -11 0 -12 -2 -3 -6 10 -4 10 -9 -3 -23 -25 -27 -31 -240 -8 -287 12
-26 14 -51 10 -102 -5 -65 -22 -110 -83 -221 -25 -46 -32 -86 -13 -74 6 3 4
-7 -4 -23 -26 -50 -99 -70 -129 -35 -23 26 -31 77 -20 130 6 26 18 92 27 147
48 298 60 334 131 406 39 40 45 50 38 70 -5 13 -10 89 -11 169 -1 80 -5 163
-8 185 -3 22 -10 75 -15 117 -5 42 -17 96 -26 120 -31 85 -44 155 -54 293 -17
227 -37 317 -34 147 l2 -97 -8 80 c-16 159 -42 259 -95 365 -66 133 -192 279
-309 359 -151 104 -371 159 -567 141z m-26 -851 c80 -11 150 -37 140 -52 -4
-6 0 -8 10 -4 10 4 16 2 14 -5 -1 -7 9 -17 23 -24 46 -23 232 -16 199 8 -21
14 176 0 236 -17 83 -23 160 -72 244 -154 109 -107 116 -129 100 -351 -11
-146 -10 -174 4 -240 12 -55 17 -129 18 -280 0 -189 -2 -217 -30 -360 -47
-242 -52 -264 -61 -249 -6 8 -11 -1 -16 -27 -4 -21 -13 -53 -21 -71 -7 -18
-13 -45 -14 -60 l-1 -28 -7 25 c-5 14 -4 33 1 42 4 9 8 25 8 35 0 15 -2 14
-16 -5 -8 -12 -17 -34 -18 -47 -2 -14 -6 -28 -9 -32 -4 -3 -7 -21 -7 -39 0
-18 -5 -36 -10 -39 -6 -3 -10 4 -10 16 0 65 -38 -57 -57 -183 -7 -48 -17 -48
-37 0 -15 37 -15 37 -11 -48 l5 -85 -15 45 c-8 25 -15 63 -16 85 -1 35 -2 37
-9 15 -4 -14 -8 -45 -9 -71 -1 -25 -6 -50 -12 -56 -7 -7 -15 -29 -19 -50 -7
-37 -8 -36 -9 17 -1 30 -8 69 -16 85 l-13 30 5 -37 c7 -48 -2 -48 -22 -1 -12
29 -18 34 -28 24 -9 -9 -9 -14 3 -21 8 -5 11 -10 5 -10 -5 0 -4 -4 3 -8 8 -6
10 -19 6 -41 -8 -41 -19 -30 -37 39 -8 30 -18 64 -21 75 -4 11 0 7 9 -9 29
-49 39 -19 28 81 -11 93 -39 176 -52 154 -5 -7 -14 3 -26 29 -10 22 -21 38
-23 35 -3 -3 -11 7 -17 22 l-12 28 -6 -41 c-4 -23 -17 -50 -31 -63 l-25 -23
21 41 c25 52 32 227 9 254 -20 25 -105 23 -147 -4 -28 -17 -43 -19 -88 -14
-34 5 -61 3 -75 -5 -18 -9 -30 -6 -75 19 -46 27 -64 31 -124 31 -53 0 -71 -4
-76 -15 -3 -10 1 -15 12 -15 10 0 31 -13 47 -30 28 -29 28 -30 10 -50 -10 -11
-24 -20 -31 -20 -7 0 -16 -16 -19 -37 -3 -21 -19 -65 -35 -98 -15 -33 -31 -67
-33 -75 -4 -9 -6 -7 -6 8 -1 25 -9 28 -25 8 -6 -8 -26 -17 -45 -21 -34 -7 -34
-7 -28 24 9 44 -1 38 -25 -15 -14 -32 -23 -43 -28 -34 -5 9 -8 5 -8 -11 0 -13
-11 -55 -25 -94 -20 -57 -25 -65 -29 -45 -4 17 -6 11 -7 -18 0 -23 -8 -59 -17
-80 l-17 -37 -15 58 c-9 31 -20 56 -26 54 -5 -2 -17 -25 -26 -51 l-15 -47 -14
46 c-14 49 -29 65 -41 45 -4 -7 -6 7 -3 32 4 32 1 49 -10 60 -9 8 -17 33 -19
54 -2 27 -8 39 -18 39 -16 0 -18 36 -4 89 4 16 1 52 -7 84 -11 47 -14 52 -19
32 -4 -17 -9 1 -14 53 -8 83 -25 104 -27 35 -1 -31 -5 -17 -14 47 -7 50 -13
81 -14 71 -3 -51 -13 6 -26 155 -18 207 -19 326 -1 411 8 36 18 99 21 140 4
40 18 116 31 168 14 52 27 128 30 168 9 143 56 220 225 372 186 167 289 197
552 159z m-1134 -1156 c-1 -57 -2 -62 -8 -31 -7 34 -4 98 5 98 2 0 3 -30 3
-67z m2391 -215 c-6 -38 -16 -68 -22 -68 -6 0 -8 6 -5 13 2 6 10 46 18 87 7
41 15 66 17 55 3 -11 -1 -50 -8 -87z m-2325 -124 c9 -15 12 -23 6 -20 -11 7
-35 46 -28 46 3 0 12 -12 22 -26z m2225 -178 c0 -2 -8 -10 -17 -17 -16 -13
-17 -12 -4 4 13 16 21 21 21 13z m-843 -133 c-3 -10 -5 -4 -5 12 0 17 2 24 5
18 2 -7 2 -21 0 -30z m-337 -17 c0 -2 -8 -10 -17 -17 -16 -13 -17 -12 -4 4 13
16 21 21 21 13z m156 -86 c42 -46 100 -68 131 -52 29 16 61 -5 88 -58 13 -25
51 -102 85 -172 l61 -127 -26 -45 c-16 -27 -29 -70 -34 -108 -5 -35 -9 -52
-11 -38 -1 14 -4 19 -7 13 -7 -18 -23 -16 -23 2 0 22 -18 18 -25 -5 -4 -11
-22 -41 -41 -66 -25 -32 -37 -60 -41 -95 l-6 -50 -18 30 c-13 21 -29 32 -55
37 -20 4 -52 20 -70 36 -33 29 -34 33 -35 107 l-1 76 -15 -62 c-8 -35 -18 -63
-21 -63 -4 0 -8 24 -9 53 -2 28 -4 72 -5 96 -2 28 1 46 10 48 6 3 10 -1 8 -9
-12 -39 -15 -68 -7 -68 5 0 11 17 13 37 3 38 8 41 82 58 l29 6 -28 15 c-24 12
-41 13 -99 4 -39 -6 -94 -8 -123 -4 -29 3 -53 4 -53 0 0 -9 63 -33 109 -41 32
-5 41 -11 41 -26 0 -11 -4 -18 -9 -15 -9 6 -71 -76 -71 -95 0 -7 -3 -9 -7 -6
-3 4 2 25 12 47 21 46 17 54 -22 46 -37 -9 -97 -98 -89 -131 3 -13 3 -51 -1
-85 -6 -57 -7 -61 -20 -44 -14 19 -15 19 -29 0 -8 -11 -14 -31 -15 -45 -1 -30
-5 -21 -14 32 -7 41 -20 48 -31 15 -6 -21 -7 -21 -20 -3 -8 10 -14 27 -14 37
0 26 -27 76 -61 116 -16 18 -29 39 -29 46 0 8 -6 19 -14 25 -8 7 -17 23 -20
38 -4 14 -16 45 -27 69 -12 23 -19 51 -16 61 3 11 5 6 6 -11 1 -37 14 -25 31
29 17 56 35 82 71 100 29 15 32 15 80 -15 37 -23 47 -26 40 -12 -5 10 -21 24
-35 32 -14 7 -26 17 -26 22 0 10 37 1 55 -12 6 -4 28 -11 50 -15 22 -3 49 -15
60 -25 20 -18 59 -25 198 -36 70 -6 250 20 275 39 21 16 13 27 -20 29 l-33 1
32 4 c40 5 50 31 28 77 -18 37 -59 71 -75 61 -8 -5 -194 16 -275 31 -18 3 -42
-1 -60 -10 -50 -26 -63 -18 -18 12 23 14 47 37 52 49 11 24 61 51 98 52 14 1
36 -14 59 -39z m-122 -123 c10 -7 18 -28 19 -47 2 -34 1 -35 -41 -38 -50 -4
-69 8 -74 46 l-4 27 -12 -27 c-14 -33 -52 -39 -52 -9 0 14 11 23 38 31 20 7
41 16 47 21 14 13 59 11 79 -4z m141 -7 c3 -5 18 -7 33 -5 19 4 35 -2 56 -20
15 -14 26 -28 24 -31 -9 -8 -187 -26 -203 -20 -18 7 -21 72 -2 79 22 9 86 7
92 -3z m-521 -88 c-17 -15 -38 -40 -47 -57 -18 -33 -22 -21 -7 19 5 14 24 35
42 46 45 27 49 24 12 -8z m401 -5 c55 0 130 2 167 6 37 3 70 1 73 -3 3 -5 -12
-21 -34 -36 -32 -21 -56 -27 -121 -31 -48 -4 -90 -2 -103 5 -12 5 -60 20 -107
32 -135 35 -143 40 -55 34 44 -3 125 -6 180 -7z m-379 -434 c-5 -5 -56 79 -56
92 0 5 14 -13 31 -39 16 -27 28 -50 25 -53z m264 -25 c0 -7 3 -31 6 -53 5 -28
3 -37 -4 -30 -16 15 -27 95 -13 95 6 0 11 -6 11 -12z m-504 -170 c29 -31 29
-31 2 -12 -15 10 -29 25 -32 32 -8 18 -2 15 30 -20z m39 -68 c10 -11 16 -20
13 -20 -3 0 -13 9 -23 20 -10 11 -16 20 -13 20 3 0 13 -9 23 -20z"/>
<path d="M2040 3343 c-8 -3 -31 -13 -50 -22 -19 -9 -44 -16 -54 -16 -12 0 -23
-10 -28 -27 -12 -35 8 -58 51 -58 23 0 31 -5 31 -18 0 -17 4 -18 78 -5 81 15
190 11 252 -9 l35 -12 -60 -13 c-33 -7 -87 -18 -120 -23 -74 -13 -180 -61
-194 -88 -13 -24 -5 -52 15 -52 7 0 28 9 46 20 18 11 45 20 61 20 17 0 27 5
27 15 0 13 3 13 25 -1 16 -11 46 -17 81 -17 49 0 59 3 79 28 l22 29 18 -27 c9
-15 24 -27 31 -27 8 0 14 -4 14 -9 0 -6 8 -9 18 -9 9 1 27 -2 40 -6 28 -9 28
4 0 40 -21 26 -21 27 -3 20 11 -5 34 -11 50 -13 17 -3 40 -16 51 -30 l21 -25
21 34 c11 18 30 41 41 50 22 19 29 72 11 83 -5 3 -10 20 -10 37 0 26 -2 29
-15 18 -20 -17 -65 -7 -114 25 -63 42 -120 54 -249 53 -64 0 -120 -5 -123 -10
-4 -6 -16 -7 -28 -3 -16 5 -19 10 -12 19 20 24 -19 44 -59 29z"/>
<path d="M2740 3339 c0 -39 24 -89 57 -119 37 -35 37 -35 18 -5 -11 17 -32 54
-47 84 -16 30 -28 48 -28 40z"/>
<path d="M3055 3239 c-22 -5 -64 -15 -93 -21 -39 -8 -60 -20 -82 -44 -33 -38
-47 -95 -32 -128 11 -25 63 -36 174 -36 38 0 68 -6 90 -19 36 -21 165 -41 155
-24 -4 6 -34 13 -68 16 -57 6 -119 32 -119 49 0 11 3 10 36 -7 16 -8 51 -15
79 -15 45 0 133 -25 145 -41 8 -11 68 -39 83 -39 8 0 20 7 27 15 11 13 7 22
-25 55 -42 43 -122 82 -207 101 -32 7 -58 16 -58 21 0 18 127 8 198 -17 81
-28 118 -31 146 -10 18 13 18 15 0 52 -11 23 -39 51 -68 71 -53 35 -82 43 -45
12 13 -10 20 -19 15 -20 -5 0 1 -12 15 -26 24 -26 23 -26 -41 6 -113 57 -220
73 -325 49z m420 -119 c10 -11 16 -20 13 -20 -3 0 -13 9 -23 20 -10 11 -16 20
-13 20 3 0 13 -9 23 -20z"/>
<path d="M2750 3169 c0 -15 7 -32 15 -39 22 -19 23 -10 3 30 -17 33 -18 34
-18 9z"/>
<path d="M1950 3120 c-24 -18 -24 -20 -8 -37 21 -20 33 -11 43 30 8 32 -1 34
-35 7z"/>
<path d="M2225 3011 c-78 -6 -79 -6 -33 -13 50 -8 105 -1 114 13 3 5 4 8 2 7
-2 -1 -39 -4 -83 -7z"/>
<path d="M2340 2970 c-14 -4 -64 -8 -112 -9 -102 -1 -124 -7 -104 -26 7 -7 24
-15 37 -18 13 -2 -1 -2 -31 0 -54 4 -55 4 -26 -11 39 -22 137 -20 224 4 39 11
81 20 93 20 15 0 19 5 15 15 -3 9 0 15 10 15 8 0 12 5 9 10 -7 12 -79 12 -115
0z"/>
<path d="M2975 2935 c33 -19 78 -40 100 -46 68 -19 169 -39 198 -39 44 0 31
17 -18 25 -25 3 -83 26 -130 51 -74 39 -91 44 -147 44 l-63 -1 60 -34z"/>
<path d="M2891 2923 c6 -15 20 -44 32 -63 16 -25 23 -30 25 -18 2 9 -8 34 -22
56 -32 51 -50 64 -35 25z"/>
<path d="M2415 2718 c-20 -37 -53 -89 -75 -117 -22 -28 -40 -58 -40 -67 0 -9
-9 -29 -21 -45 -11 -16 -21 -37 -21 -46 -3 -32 13 -74 25 -71 7 3 41 62 77
132 36 71 79 142 96 160 33 33 54 66 54 87 0 8 -6 6 -18 -4 -25 -22 -39 -22
-20 1 30 34 30 42 4 40 -21 -2 -33 -16 -61 -70z"/>
<path d="M2936 2734 c-4 -14 5 -45 27 -92 19 -39 37 -69 39 -66 3 2 12 -13 20
-33 49 -121 82 -204 98 -248 l19 -50 1 69 c0 131 -49 261 -136 356 -28 30 -53
62 -56 70 -4 11 -7 10 -12 -6z"/>
<path d="M2405 2550 c-3 -5 -1 -10 4 -10 6 0 11 5 11 10 0 6 -2 10 -4 10 -3 0
-8 -4 -11 -10z"/>
<path d="M3001 2544 c0 -11 3 -14 6 -6 3 7 2 16 -1 19 -3 4 -6 -2 -5 -13z"/>
<path d="M2604 2535 c36 -19 47 -19 22 0 -11 8 -27 15 -35 15 -9 0 -3 -7 13
-15z"/>
<path d="M3142 2205 c0 -11 4 -31 8 -45 6 -20 8 -21 8 -5 0 11 -4 31 -8 45 -6
20 -8 21 -8 5z"/>
<path d="M2082 1960 c0 -14 2 -19 5 -12 2 6 2 18 0 25 -3 6 -5 1 -5 -13z"/>
<path d="M2485 1745 c-26 -25 -28 -34 -16 -75 7 -25 8 -24 15 8 4 17 12 32 17
32 4 0 15 14 24 30 14 27 14 30 0 30 -9 0 -27 -11 -40 -25z"/>
<path d="M2462 1620 c0 -14 2 -19 5 -12 2 6 2 18 0 25 -3 6 -5 1 -5 -13z"/>
<path d="M3365 4820 c10 -11 20 -20 23 -20 3 0 -3 9 -13 20 -10 11 -20 20 -23
20 -3 0 3 -9 13 -20z"/>
<path d="M1600 4347 c-295 -130 -514 -279 -730 -497 -325 -327 -535 -736 -622
-1205 -19 -104 -22 -155 -22 -380 0 -225 3 -276 22 -380 87 -470 297 -877 622
-1205 339 -342 748 -555 1230 -642 108 -20 159 -23 375 -23 216 0 267 3 375
23 242 43 435 108 649 217 561 285 975 788 1149 1397 62 216 77 335 76 618 0
282 -13 385 -75 605 -145 511 -468 959 -907 1259 -39 27 -75 46 -79 43 -3 -4
10 -40 30 -80 20 -39 39 -90 43 -112 16 -90 31 -113 154 -231 197 -191 320
-359 435 -596 139 -286 205 -575 205 -893 0 -318 -66 -607 -205 -893 -166
-343 -418 -629 -735 -835 -93 -60 -261 -147 -284 -147 -8 0 -25 17 -37 38 -13
20 -41 56 -62 79 -22 23 -47 53 -55 65 -8 13 -32 41 -52 63 -21 22 -47 58 -58
80 -24 45 -27 39 -11 -18 9 -33 7 -44 -17 -92 -14 -30 -44 -75 -65 -99 -49
-56 -89 -66 -289 -73 -133 -5 -153 -3 -240 20 -52 14 -158 42 -235 62 -174 46
-326 104 -396 153 -30 21 -74 49 -99 64 -25 15 -78 59 -118 99 -59 59 -75 82
-89 128 -24 78 -22 149 5 195 12 20 22 39 22 41 0 1 -17 -1 -37 -6 -21 -5 -67
-13 -102 -19 -35 -6 -81 -20 -102 -30 -36 -19 -124 -54 -194 -78 -16 -6 -52
-16 -80 -22 -27 -6 -57 -18 -66 -26 -10 -9 -31 -14 -50 -12 -29 3 -41 14 -102
103 -90 132 -204 363 -255 516 -70 217 -102 417 -102 644 0 556 221 1081 617
1466 170 165 317 271 513 369 58 29 108 57 111 62 3 5 9 47 12 93 3 47 11 94
17 105 15 28 0 26 -90 -13z m-568 -3349 c-7 -7 -12 -22 -12 -35 0 -13 -4 -23
-9 -23 -6 0 -6 12 -1 30 11 37 20 53 28 45 3 -3 0 -11 -6 -17z m36 -12 c-26
-20 -23 -56 5 -57 12 0 0 -7 -28 -15 -63 -17 -67 -17 -91 1 -17 13 -15 14 28
9 l47 -7 11 42 c7 28 16 41 28 41 16 -1 16 -2 0 -14z m167 -76 c-3 -5 -30 -9
-58 -8 l-52 1 55 7 c30 4 56 7 58 8 2 1 0 -2 -3 -8z m65 -5 c-7 -9 -15 -13
-17 -11 -7 7 7 26 19 26 6 0 6 -6 -2 -15z m-248 -36 c-25 -18 -49 -28 -58 -25
-19 7 -9 26 14 26 9 1 28 7 42 15 44 25 45 16 2 -16z m18 -69 c-24 -15 -36
-11 -14 4 10 8 21 12 24 10 2 -3 -2 -9 -10 -14z m110 0 c-8 -5 -26 -10 -40
-10 -20 0 -22 2 -10 10 8 5 26 10 40 10 20 0 22 -2 10 -10z m283 3 c-7 -2 -19
-2 -25 0 -7 3 -2 5 12 5 14 0 19 -2 13 -5z m-313 -37 c0 -2 -15 -6 -34 -8 -19
-2 -32 0 -30 4 5 8 64 12 64 4z m40 -83 c0 -18 -6 -16 -35 12 -33 34 -32 38 5
17 16 -9 30 -23 30 -29z m130 -63 c-12 -8 -13 -13 -2 -30 15 -25 11 -25 -29
-1 -28 17 -29 20 -12 30 10 6 27 10 38 11 16 0 17 -2 5 -10z m61 -32 c-11 -18
-25 -34 -32 -37 -7 -2 1 13 17 33 36 45 43 46 15 4z m59 9 c0 -2 -10 -12 -22
-23 l-23 -19 19 23 c18 21 26 27 26 19z m60 -12 c-7 -8 -17 -15 -22 -15 -6 0
-5 7 2 15 7 8 17 15 22 15 6 0 5 -7 -2 -15z m324 -125 c-10 -16 -20 -27 -22
-25 -5 5 26 55 34 55 3 0 -3 -13 -12 -30z m-167 -56 c-3 -3 -12 -4 -19 -1 -8
3 -5 6 6 6 11 1 17 -2 13 -5z m203 -24 c-8 -5 -19 -10 -25 -10 -5 0 -3 5 5 10
8 5 20 10 25 10 6 0 3 -5 -5 -10z m1020 -35 c20 -24 6 -28 -15 -5 -10 11 -13
20 -8 20 6 0 16 -7 23 -15z m178 -21 c-3 -14 -5 -12 -10 9 -3 19 -2 25 4 19 6
-6 8 -18 6 -28z m-691 -46 c-2 -13 -4 -5 -4 17 -1 22 1 32 4 23 2 -10 2 -28 0
-40z m-112 -24 c9 -15 12 -23 6 -20 -11 7 -35 46 -28 46 3 0 12 -12 22 -26z
m49 -24 c10 -13 9 -13 -6 -1 -10 7 -18 21 -17 30 0 13 1 14 6 1 3 -8 11 -22
17 -30z"/>
<path d="M1657 3022 c-15 -15 -27 -36 -27 -46 0 -20 -40 -99 -53 -104 -9 -4 1
-68 15 -94 5 -10 18 -18 29 -18 11 0 31 -7 45 -16 13 -9 27 -14 30 -12 9 10
-8 58 -21 58 -35 0 -14 112 31 162 13 13 13 23 4 57 -6 23 -14 41 -19 41 -4 0
-19 -13 -34 -28z"/>
<path d="M3669 2840 c-9 -31 -9 -46 -1 -63 23 -44 40 -106 35 -126 -3 -11 -16
-27 -29 -36 -29 -19 -34 -62 -6 -50 9 5 31 10 49 13 38 5 48 15 61 63 8 29 6
43 -9 74 -11 21 -19 50 -19 64 0 27 -44 101 -60 101 -5 0 -15 -18 -21 -40z"/>
<path d="M1880 1613 c0 -5 7 -18 15 -29 13 -18 14 -18 8 4 -5 22 -23 41 -23
25z"/>
<path d="M1849 1501 c24 -28 46 -50 48 -47 8 7 -39 65 -66 83 -19 12 -14 3 18
-36z"/>
<path d="M2324 1040 c17 -6 36 -5 45 0 11 7 3 9 -29 9 -42 -1 -43 -1 -16 -9z"/>
<path d="M2991 814 c0 -11 3 -14 6 -6 3 7 2 16 -1 19 -3 4 -6 -2 -5 -13z"/>
<path d="M2980 670 c0 -11 -9 -46 -20 -77 -25 -72 -25 -89 1 -40 20 37 38 137
25 137 -3 0 -6 -9 -6 -20z"/>
</g>
</svg>
